<svg width="162" height="158" viewBox="0 0 162 158" fill="none" xmlns="http://www.w3.org/2000/svg">
<g filter="url(#filter0_d_1_193)">
<ellipse cx="80.6528" cy="75" rx="76.6528" ry="75" fill="#8C1515"/>
</g>
<path d="M18.6984 86V65.136H25.8664C27.4024 65.136 28.789 65.3493 30.0264 65.776C31.285 66.1813 32.2877 66.8747 33.0344 67.856C33.781 68.8373 34.1544 70.1707 34.1544 71.856C34.1544 73.4773 33.781 74.8107 33.0344 75.856C32.2877 76.9013 31.2957 77.68 30.0584 78.192C28.821 78.6827 27.4664 78.928 25.9944 78.928H23.4024V86H18.6984ZM23.4024 75.184H25.7064C28.2664 75.184 29.5464 74.0747 29.5464 71.856C29.5464 70.768 29.205 70 28.5224 69.552C27.8397 69.104 26.8584 68.88 25.5784 68.88H23.4024V75.184ZM37.3769 86V70.128H41.2169L41.5369 72.912H41.6649C42.2409 71.8453 42.9342 71.056 43.7449 70.544C44.5555 70.0107 45.3662 69.744 46.1769 69.744C46.6249 69.744 46.9982 69.776 47.2969 69.84C47.5955 69.8827 47.8515 69.9573 48.0649 70.064L47.2969 74.128C47.0195 74.0427 46.7422 73.9787 46.4649 73.936C46.2089 73.8933 45.9102 73.872 45.5689 73.872C44.9715 73.872 44.3422 74.096 43.6809 74.544C43.0409 74.9707 42.5075 75.7173 42.0809 76.784V86H37.3769ZM56.6304 86.384C55.2864 86.384 54.017 86.064 52.8224 85.424C51.649 84.7627 50.6997 83.8133 49.9744 82.576C49.249 81.3173 48.8864 79.8133 48.8864 78.064C48.8864 76.2933 49.249 74.7893 49.9744 73.552C50.6997 72.3147 51.649 71.376 52.8224 70.736C54.017 70.0747 55.2864 69.744 56.6304 69.744C57.9744 69.744 59.233 70.0747 60.4064 70.736C61.5797 71.376 62.529 72.3147 63.2544 73.552C63.9797 74.7893 64.3424 76.2933 64.3424 78.064C64.3424 79.8133 63.9797 81.3173 63.2544 82.576C62.529 83.8133 61.5797 84.7627 60.4064 85.424C59.233 86.064 57.9744 86.384 56.6304 86.384ZM56.6304 82.576C57.5904 82.576 58.3157 82.1707 58.8064 81.36C59.297 80.528 59.5424 79.4293 59.5424 78.064C59.5424 76.6773 59.297 75.5787 58.8064 74.768C58.3157 73.9573 57.5904 73.552 56.6304 73.552C55.649 73.552 54.913 73.9573 54.4224 74.768C53.953 75.5787 53.7184 76.6773 53.7184 78.064C53.7184 79.4293 53.953 80.528 54.4224 81.36C54.913 82.1707 55.649 82.576 56.6304 82.576ZM68.2081 86V73.808H66.0961V70.32L68.2081 70.16V69.296C68.2081 68.1653 68.4001 67.1413 68.7841 66.224C69.1681 65.3067 69.7868 64.5707 70.6401 64.016C71.4935 63.4613 72.6348 63.184 74.0641 63.184C74.7255 63.184 75.3335 63.248 75.8881 63.376C76.4428 63.504 76.8908 63.632 77.2321 63.76L76.3681 67.216C76.0908 67.1093 75.8135 67.0347 75.5361 66.992C75.2588 66.928 74.9921 66.896 74.7361 66.896C74.1601 66.896 73.7121 67.0773 73.3921 67.44C73.0721 67.7813 72.9121 68.3573 72.9121 69.168V70.128H75.7601V73.808H72.9121V86H68.2081ZM87.9144 86.384C86.0157 86.384 84.2877 85.9787 82.7304 85.168C81.1944 84.3573 79.9677 83.1627 79.0504 81.584C78.1544 79.984 77.7064 78.0213 77.7064 75.696C77.7064 73.392 78.165 71.4293 79.0824 69.808C80.021 68.1653 81.2584 66.9173 82.7944 66.064C84.3304 65.1893 86.0264 64.752 87.8824 64.752C89.397 64.752 90.6984 65.0293 91.7864 65.584C92.8744 66.1387 93.7597 66.768 94.4424 67.472L91.9784 70.48C91.445 70.0107 90.8797 69.616 90.2824 69.296C89.685 68.976 88.9384 68.816 88.0424 68.816C86.421 68.816 85.0984 69.4133 84.0744 70.608C83.0504 71.8027 82.5384 73.4453 82.5384 75.536C82.5384 77.6693 83.029 79.3333 84.0104 80.528C84.9917 81.7227 86.453 82.32 88.3944 82.32C88.821 82.32 89.237 82.2667 89.6424 82.16C90.0477 82.0533 90.3784 81.8933 90.6344 81.68V78.096H87.1784V74.256H94.7944V83.856C94.069 84.56 93.0984 85.1573 91.8824 85.648C90.6877 86.1387 89.365 86.384 87.9144 86.384ZM103.489 86.384C101.761 86.384 100.502 85.8187 99.7126 84.688C98.9446 83.536 98.5606 81.968 98.5606 79.984V70.128H103.265V79.376C103.265 80.5067 103.425 81.296 103.745 81.744C104.065 82.1707 104.566 82.384 105.249 82.384C105.846 82.384 106.347 82.2453 106.753 81.968C107.158 81.6907 107.595 81.2427 108.065 80.624V70.128H112.769V86H108.929L108.577 83.792H108.481C107.819 84.5813 107.094 85.2107 106.305 85.68C105.515 86.1493 104.577 86.384 103.489 86.384ZM116.908 86V70.128H120.748L121.068 72.912H121.196C121.772 71.8453 122.465 71.056 123.276 70.544C124.087 70.0107 124.897 69.744 125.708 69.744C126.156 69.744 126.529 69.776 126.828 69.84C127.127 69.8827 127.383 69.9573 127.596 70.064L126.828 74.128C126.551 74.0427 126.273 73.9787 125.996 73.936C125.74 73.8933 125.441 73.872 125.1 73.872C124.503 73.872 123.873 74.096 123.212 74.544C122.572 74.9707 122.039 75.7173 121.612 76.784V86H116.908ZM134.426 86.384C132.698 86.384 131.439 85.8187 130.65 84.688C129.882 83.536 129.498 81.968 129.498 79.984V70.128H134.202V79.376C134.202 80.5067 134.362 81.296 134.682 81.744C135.002 82.1707 135.503 82.384 136.186 82.384C136.783 82.384 137.285 82.2453 137.69 81.968C138.095 81.6907 138.533 81.2427 139.002 80.624V70.128H143.706V86H139.866L139.514 83.792H139.418C138.757 84.5813 138.031 85.2107 137.242 85.68C136.453 86.1493 135.514 86.384 134.426 86.384Z" fill="white"/>
<defs>
<filter id="filter0_d_1_193" x="0" y="0" width="161.306" height="158" filterUnits="userSpaceOnUse" color-interpolation-filters="sRGB">
<feFlood flood-opacity="0" result="BackgroundImageFix"/>
<feColorMatrix in="SourceAlpha" type="matrix" values="0 0 0 0 0 0 0 0 0 0 0 0 0 0 0 0 0 0 127 0" result="hardAlpha"/>
<feOffset dy="4"/>
<feGaussianBlur stdDeviation="2"/>
<feComposite in2="hardAlpha" operator="out"/>
<feColorMatrix type="matrix" values="0 0 0 0 0 0 0 0 0 0 0 0 0 0 0 0 0 0 0.25 0"/>
<feBlend mode="normal" in2="BackgroundImageFix" result="effect1_dropShadow_1_193"/>
<feBlend mode="normal" in="SourceGraphic" in2="effect1_dropShadow_1_193" result="shape"/>
</filter>
</defs>
</svg>
